<svg xmlns="http://www.w3.org/2000/svg" width="86" height="48" viewBox="0 0 86 48">
    <g fill="none" fill-rule="evenodd">
        <g>
            <g>
                <path fill="#001339" d="M54.255 29.048c0 2.26-1.832 4.092-4.092 4.092-2.203 0-3.994-1.742-4.083-3.923 0-.065.002-.128 0-.194 0-.028-.007-.054-.009-.081v-5.335c0-2.26 1.832-4.092 4.092-4.092s4.092 1.832 4.092 4.092v5.44zM35.21 23.597c1.984 0 3.642 1.42 4.013 3.297l-8.105 4.053v-3.258c0-2.257 1.836-4.092 4.092-4.092zM18.877 41.303c-2.26 0-4.092-1.832-4.092-4.092v-5.44c0-2.26 1.832-4.092 4.092-4.092 2.258 0 4.088 1.828 4.092 4.085v5.453c-.004 2.257-1.834 4.086-4.092 4.086zm48.18-9.676c.012-.005.025-.007.037-.013l5.441-2.721c.027-.013.049-.032.074-.046.038-.023.076-.045.112-.072.04-.028.075-.058.11-.09.029-.026.057-.051.082-.08.035-.036.066-.075.096-.115.022-.03.043-.058.062-.09.027-.042.05-.085.072-.13.016-.034.031-.067.045-.102.018-.048.032-.097.045-.146.009-.034.018-.068.024-.103.01-.056.014-.113.017-.17.001-.021.006-.041.006-.063l-.003-.03c-.001-.058-.008-.115-.017-.173l-.016-.099c-.011-.048-.028-.095-.045-.142-.013-.04-.026-.078-.044-.115-.006-.015-.009-.03-.016-.044-.014-.028-.034-.052-.05-.079-.021-.036-.042-.072-.067-.106-.029-.04-.06-.076-.093-.113-.025-.028-.05-.055-.078-.081-.036-.034-.074-.064-.113-.093-.031-.024-.062-.046-.095-.066-.04-.025-.08-.046-.122-.067-.037-.018-.074-.035-.113-.05-.043-.016-.086-.029-.13-.04-.04-.011-.08-.021-.121-.028-.049-.008-.098-.012-.147-.015-.027-.001-.052-.008-.079-.008-2.256 0-4.091-1.835-4.092-4.09V11.36c0-.746-.604-1.35-1.349-1.35s-1.35.604-1.35 1.35l.001 10.884v.003c.001 2.415 1.273 4.533 3.178 5.737l-2.118 1.059c-2.121-.15-3.803-1.918-3.804-4.076V8.644c0-.745-.604-1.35-1.349-1.35s-1.35.605-1.35 1.35v16.322l.001.003c0 1.93.815 3.671 2.114 4.908l-4.857 2.429-.003-14.14c0-.745-.604-1.349-1.35-1.349-.745 0-1.349.604-1.349 1.35v.03c-1.138-.862-2.553-1.38-4.091-1.38-3.75 0-6.79 3.04-6.79 6.79v5.44c0 .047.006.092.007.138.022 4.426-3.082 5.984-3.285 6.08l-.048.023-3.066 1.532c-.555.266-1.15.401-1.771.401-1.984 0-3.642-1.42-4.013-3.297l10.057-5.029c.024-.012.044-.029.067-.042.042-.024.084-.049.123-.078.035-.025.068-.053.1-.082.032-.029.064-.058.093-.09.03-.033.058-.067.084-.102.026-.034.051-.068.074-.105.023-.037.042-.074.061-.113.02-.04.038-.08.054-.12.015-.042.027-.083.038-.125.012-.041.022-.083.03-.125.007-.048.011-.097.014-.145.001-.027.008-.052.008-.08 0-.02-.003-.041-.003-.062l-.002-.041c-.057-3.696-3.076-6.686-6.785-6.686-3.744 0-6.79 3.046-6.79 6.79v5.44c0 1.93.813 3.671 2.11 4.908l-4.862 2.432v-19.58c0-.746-.605-1.35-1.35-1.35-.745 0-1.35.604-1.35 1.35v5.471c-1.138-.862-2.552-1.38-4.09-1.38-3.75 0-6.79 3.04-6.79 6.79v5.441c0 3.75 3.04 6.79 6.79 6.79 1.538 0 2.952-.518 4.09-1.38v.031c0 .014.005.028.005.042.001.046.008.092.014.139.006.044.011.088.021.13.01.039.023.076.035.113.017.05.034.098.055.145.006.011.008.023.014.034.02.04.043.076.067.113.01.015.017.032.027.047.044.064.093.122.146.176.014.015.029.027.043.04.044.042.09.08.137.114.019.013.036.027.056.04.063.04.128.077.197.106l.042.015c.06.023.12.042.183.057l.07.015c.078.013.156.023.236.023h.012c.096-.001.19-.013.281-.033.024-.005.047-.015.07-.022.073-.02.144-.044.21-.076.011-.005.022-.006.033-.011l8.415-4.208c.596.171 1.223.269 1.873.269 1.03 0 2.02-.225 2.942-.67l.01-.005.007-.003 3.067-1.531c.337-.159 2.608-1.314 3.918-4.09 1.242 1.359 3.023 2.217 5.009 2.217 1.54 0 2.956-.519 4.095-1.383v.034l.003.033c.001.056.009.11.017.166.005.035.01.07.017.105.01.046.027.091.043.136.014.042.028.082.046.122.006.013.009.028.016.041.023.048.051.092.08.136l.011.019c.046.068.098.13.154.186l.029.027c.048.047.1.09.154.128l.043.03c.066.043.134.08.205.111l.03.011c.064.025.129.045.195.06.022.006.044.01.067.014.078.014.158.024.24.024.1 0 .197-.012.291-.033.02-.005.04-.014.06-.02.078-.02.152-.046.222-.08.01-.004.02-.005.028-.01l8.413-4.206c.592.17 1.215.267 1.86.267h.01l.033-.003c.087-.002.172-.011.253-.03.029-.005.056-.017.084-.025.067-.02.133-.042.195-.07z" transform="translate(-128 -8) translate(128 8)"/>
                <g fill="#001339">
                    <g>
                        <path d="M45.44 39.444c-.46 0-.834-.374-.834-.833v-3.325c0-.152-.123-.275-.275-.275-.152 0-.275.123-.275.275v3.325c0 .762.62 1.383 1.383 1.383.152 0 .275-.123.275-.275 0-.152-.123-.275-.275-.275M42.948 38.61c0 .46-.374.834-.834.834-.46 0-.833-.374-.833-.833v-1.109c0-.46.374-.833.833-.833.46 0 .834.374.834.833v1.109zm.275-2.49c-.152 0-.275.122-.275.274v.012c-.233-.177-.52-.287-.834-.287-.762 0-1.383.62-1.383 1.383v1.109c0 .762.62 1.383 1.383 1.383.315 0 .601-.11.834-.287v.012c0 .152.123.275.275.275.151 0 .274-.123.274-.275v-3.325c0-.152-.123-.275-.274-.275zM36.3 38.61c0 .46-.373.834-.833.834-.46 0-.833-.374-.833-.833v-1.109c0-.46.374-.833.833-.833.46 0 .834.374.834.833v1.109zm.275-3.599c-.151 0-.274.123-.274.275v1.113c-.232-.175-.521-.28-.834-.28-.762 0-1.383.62-1.383 1.383v1.109c0 .762.62 1.383 1.383 1.383.313 0 .602-.105.834-.28v.005c0 .152.123.275.274.275.152 0 .275-.123.275-.275v-4.433c0-.152-.123-.275-.275-.275zM37.956 38.166v-.664c0-.46.374-.833.834-.833.404 0 .742.29.817.672l-1.651.825zm2.217-.664c0-.762-.62-1.383-1.383-1.383s-1.383.62-1.383 1.383v1.109c0 .762.62 1.383 1.383 1.383.264 0 .52-.075.744-.218l.029-.019c.382-.258.61-.686.61-1.146 0-.152-.123-.275-.275-.275-.152 0-.275.123-.275.275 0 .277-.137.535-.368.691l-.018.012c-.133.085-.288.13-.447.13-.405 0-.742-.29-.818-.672l2.049-1.024c.093-.047.152-.142.152-.246zM46.643 39.444c-.154 0-.28-.125-.28-.28v-2.77c0-.152-.123-.275-.275-.275-.151 0-.274.123-.274.275v2.77c0 .458.372.83.829.83.151 0 .274-.123.274-.275 0-.152-.123-.275-.274-.275M46.089 35.618c.183 0 .332-.149.332-.332 0-.184-.149-.333-.332-.333-.184 0-.333.15-.333.333 0 .183.149.332.333.332M54.222 38.61c0 .46-.374.834-.833.834-.46 0-.834-.374-.834-.833v-1.109c0-.46.374-.833.834-.833.46 0 .833.374.833.833v1.109zm-.833-2.49c-.763 0-1.383.62-1.383 1.382v1.109c0 .762.62 1.383 1.383 1.383.762 0 1.383-.62 1.383-1.383v-1.109c0-.762-.62-1.383-1.383-1.383zM48.583 36.669c.46 0 .834.374.834.833 0 .152.123.275.275.275.151 0 .274-.123.274-.275 0-.762-.62-1.383-1.383-1.383-.762 0-1.383.62-1.383 1.383v1.109c0 .762.62 1.383 1.383 1.383s1.383-.62 1.383-1.383c0-.152-.123-.275-.274-.275-.152 0-.275.123-.275.275 0 .46-.374.833-.834.833-.46 0-.833-.374-.833-.833v-1.109c0-.46.374-.833.833-.833M51.493 39.444c-.154 0-.28-.125-.28-.28v-2.77c0-.152-.123-.275-.275-.275-.151 0-.274.123-.274.275v2.77c0 .458.372.83.829.83.151 0 .274-.123.274-.275 0-.152-.123-.275-.274-.275M50.939 35.618c.183 0 .332-.149.332-.332 0-.184-.149-.333-.332-.333-.184 0-.333.15-.333.333 0 .183.149.332.333.332M61.13 38.365l-2.049-1.024c.075-.383.413-.672.818-.672.46 0 .833.374.833.833 0 .152.123.275.275.275.152 0 .275-.123.275-.275 0-.762-.62-1.383-1.383-1.383s-1.383.62-1.383 1.383c0 .104.059.2.152.246l2.048 1.025c-.075.382-.413.671-.817.671-.46 0-.834-.374-.834-.833 0-.152-.123-.275-.275-.275-.151 0-.274.123-.274.275 0 .762.62 1.383 1.383 1.383.762 0 1.383-.62 1.383-1.383 0-.104-.06-.2-.152-.246M57.68 36.12c-.15 0-.274.122-.274.274v2.217c0 .46-.343.833-.764.833-.422 0-.765-.374-.765-.833v-2.217c0-.152-.122-.275-.274-.275-.152 0-.275.123-.275.275v2.217c0 .762.59 1.383 1.314 1.383.287 0 .55-.1.766-.265.006.147.125.265.273.265.152 0 .274-.123.274-.275v-3.325c0-.152-.122-.275-.274-.275M54.48 3.279c.902 0 1.633-.732 1.633-1.634 0-.902-.731-1.634-1.634-1.634-.902 0-1.633.732-1.633 1.634 0 .902.731 1.634 1.633 1.634" transform="translate(-128 -8) translate(128 8) translate(12 4)"/>
                    </g>
                </g>
            </g>
        </g>
    </g>
</svg>
