<svg xmlns="http://www.w3.org/2000/svg" xml:space="preserve" width="371.58267" height="371.58398" viewBox="0 0 371.58267 371.58398"><defs><clipPath id="a" clipPathUnits="userSpaceOnUse"><path d="M0 841.89h595.28V0H0Z"/></clipPath></defs><g clip-path="url(#a)" transform="matrix(1.33333 0 0 -1.33333 -211.197 748.057)"><path d="M0 0c0-12.325-9.993-22.316-22.316-22.316h-234.053c-12.327 0-22.318 9.991-22.318 22.316v234.057c0 12.323 9.991 22.315 22.318 22.315h234.053C-9.993 256.372 0 246.38 0 234.057Z" style="fill:#e61c4f;fill-opacity:1;fill-rule:nonzero;stroke:none" transform="translate(437.085 304.67)"/><path d="M0 0v7.303L-10.877 5.83v-7.19a86 86 0 0 0-5.362-.184c-1.803 0-3.586.073-5.358.184v7.19L-32.48 7.303V0a87 87 0 0 0-11.185 2.889l-3.334-10.055a97.5 97.5 0 0 1 30.76-4.969c10.75 0 21.082 1.76 30.76 4.969L11.185 2.889A87 87 0 0 0 0 0" style="fill:#fff;fill-opacity:1;fill-rule:nonzero;stroke:none" transform="translate(245.226 401.86)"/><path d="M0 0c5.957 0 10.782-4.83 10.782-10.784S5.957-21.569 0-21.569c-5.958 0-10.786 4.83-10.786 10.785C-10.786-4.83-5.958 0 0 0m0-32.283c11.872 0 21.5 9.627 21.5 21.499C21.5 1.09 11.872 10.714 0 10.714c-11.877 0-21.503-9.624-21.503-21.498 0-11.872 9.626-21.499 21.503-21.499" style="fill:#fff;fill-opacity:1;fill-rule:nonzero;stroke:none" transform="translate(228.989 442.957)"/><path d="m0 0 11.2-.009v61.966L0 61.966Z" style="fill:#fff;fill-opacity:1;fill-rule:nonzero;stroke:none" transform="translate(312.556 391.08)"/><path d="M0 0v-10.727h20.559v-1.752c0-3.094.427-8.209-2.684-12.67C14.557-29.913 6.037-35.85-1.332-39.828l4.828-9.435c8.522 4.448 21.246 13.151 24.633 19.451 3.401 6.316 3.806 10.627 3.806 22.8l-.029 6.999z" style="fill:#fff;fill-opacity:1;fill-rule:nonzero;stroke:none" transform="translate(270.195 449.79)"/><path d="M0 0a87 87 0 0 0-11.187-2.889v7.303l-10.88-1.473v-7.19a87 87 0 0 0-5.361-.184c-1.8 0-3.584.074-5.359.184v7.19l-10.88 1.473v-7.303A87 87 0 0 0-54.85 0l-3.338-10.055a97.5 97.5 0 0 1 30.76-4.968 97.5 97.5 0 0 1 30.762 4.968z" style="fill:#fff;fill-opacity:1;fill-rule:nonzero;stroke:none" transform="translate(393.923 404.749)"/><path d="M0 0c5.957 0 10.784-4.83 10.784-10.784S5.957-21.569 0-21.569c-5.956 0-10.784 4.83-10.784 10.785C-10.784-4.83-5.956 0 0 0m0-32.283c11.875 0 21.498 9.627 21.498 21.499C21.498 1.09 11.875 10.714 0 10.714c-11.873 0-21.503-9.624-21.503-21.498 0-11.872 9.63-21.499 21.503-21.499" style="fill:#fff;fill-opacity:1;fill-rule:nonzero;stroke:none" transform="translate(366.497 442.957)"/></g></svg>